<?xml version="1.0" encoding="utf-8"?>
<!-- Generator: Adobe Illustrator 19.1.0, SVG Export Plug-In . SVG Version: 6.00 Build 0)  -->
<svg version="1.1" id="Layer_2" xmlns="http://www.w3.org/2000/svg" xmlns:xlink="http://www.w3.org/1999/xlink" x="0px" y="0px"
	 viewBox="0 0 125.129 17.539" enable-background="new 0 0 125.129 17.539" xml:space="preserve">
<path d="M0.202,0.144h1.032l2.398,6.992L5.935,0.12h0.78l2.303,7.016l2.398-6.992h0.996L9.413,8.599H8.609L6.307,1.787L3.992,8.599
	H3.2L0.202,0.144"/>
<path d="M13.33,4.365V4.341C13.33,2.027,15.069,0,17.624,0c2.554,0,4.27,2.002,4.27,4.317v0.024c0,2.315-1.739,4.342-4.293,4.342
	C15.045,8.683,13.33,6.68,13.33,4.365z M20.91,4.365V4.341c0-1.907-1.391-3.466-3.31-3.466s-3.287,1.535-3.287,3.442v0.024
	c0,1.907,1.392,3.466,3.311,3.466S20.91,6.272,20.91,4.365z"/>
<path d="M23.901,0.144h3.61c1.031,0,1.859,0.312,2.387,0.84c0.408,0.408,0.647,0.995,0.647,1.655v0.024
	c0,1.392-0.959,2.207-2.279,2.447l2.579,3.43h-1.163l-2.435-3.262h-2.399v3.262h-0.947V0.144z M27.427,4.425
	c1.259,0,2.159-0.647,2.159-1.727V2.674c0-1.031-0.792-1.655-2.146-1.655h-2.591v3.406H27.427z"/>
<path d="M32.577,0.144h0.947v5.013l4.821-5.013h1.235l-3.61,3.67l3.754,4.726h-1.188l-3.226-4.066l-1.787,1.811v2.255h-0.947V0.144z
	"/>
<path d="M47.911,0.083h0.888l3.826,8.456h-1.019L50.622,6.32h-4.57l-0.996,2.219h-0.971L47.911,0.083z M50.25,5.469l-1.907-4.282
	l-1.919,4.282H50.25z"/>
<path d="M54.285,0.144h0.887l5.289,6.729V0.144h0.924v8.396h-0.756l-5.421-6.884v6.884h-0.923V0.144z"/>
<path d="M63.765,0.144h2.914c2.639,0,4.461,1.811,4.461,4.174v0.024c0,2.363-1.823,4.198-4.461,4.198h-2.914V0.144z M64.712,1.019
	v6.645h1.967c2.123,0,3.478-1.439,3.478-3.298V4.341c0-1.859-1.355-3.322-3.478-3.322H64.712z"/>
<path d="M76.833,0.144h0.947v8.396h-0.947V0.144z"/>
<path d="M80.24,0.144h0.888l5.289,6.729V0.144h0.923v8.396h-0.755l-5.421-6.884v6.884H80.24V0.144z"/>
<path d="M89.349,4.365V4.341C89.349,1.967,91.124,0,93.595,0c1.522,0,2.435,0.54,3.273,1.331l-0.647,0.696
	c-0.707-0.672-1.499-1.151-2.639-1.151c-1.858,0-3.25,1.511-3.25,3.442v0.024c0,1.943,1.403,3.466,3.25,3.466
	c1.151,0,1.907-0.444,2.711-1.211l0.624,0.612c-0.876,0.887-1.835,1.475-3.358,1.475C91.136,8.683,89.349,6.776,89.349,4.365z"/>
<path d="M98.013,4.365V4.341c0-2.314,1.739-4.341,4.294-4.341s4.27,2.002,4.27,4.317v0.024c0,2.315-1.739,4.342-4.294,4.342
	S98.013,6.68,98.013,4.365z M105.593,4.365V4.341c0-1.907-1.392-3.466-3.311-3.466s-3.286,1.535-3.286,3.442v0.024
	c0,1.907,1.392,3.466,3.311,3.466S105.593,6.272,105.593,4.365z"/>
<path d="M108.584,0.144h0.959l3.059,4.582l3.059-4.582h0.959v8.396h-0.947v-6.8l-3.059,4.498h-0.048l-3.058-4.485v6.788h-0.924
	V0.144z"/>
<path d="M119,0.144h6.068v0.864h-5.121v2.866h4.582v0.864h-4.582v2.938h5.182v0.863H119V0.144z"/>
<path d="M1.771,12.832H0v-0.548h4.137v0.548H2.365v4.707H1.771V12.832z"/>
<path d="M5.213,12.284h3.799v0.54H5.806v1.795h2.868v0.54H5.806v1.839h3.243v0.541H5.213V12.284z"/>
<path d="M12.488,12.284h0.593v2.335h3.033v-2.335h0.593v5.255h-0.593v-2.365h-3.033v2.365h-0.593V12.284z"/>
<path d="M18.24,12.284h0.593v5.255H18.24V12.284z"/>
<path d="M20.37,12.284h2.26c0.646,0,1.164,0.194,1.494,0.525c0.255,0.255,0.405,0.623,0.405,1.036v0.015
	c0,0.871-0.601,1.382-1.426,1.532l1.614,2.146h-0.728l-1.524-2.042h-1.501v2.042H20.37V12.284z M22.577,14.964
	c0.789,0,1.352-0.405,1.352-1.081v-0.015c0-0.646-0.496-1.036-1.344-1.036h-1.622v2.132H22.577z"/>
<path d="M27.737,12.246h0.556l2.395,5.293h-0.638l-0.616-1.389h-2.86l-0.623,1.389h-0.608L27.737,12.246z M29.201,15.617
	l-1.193-2.68l-1.201,2.68H29.201z"/>
<path d="M31.717,12.284h0.556l3.311,4.212v-4.212h0.578v5.255h-0.473l-3.393-4.309v4.309h-0.578V12.284z"/>
<path d="M37.409,14.927v-0.015c0-1.441,1.059-2.719,2.635-2.719c0.886,0,1.434,0.256,1.959,0.699l-0.383,0.449
	c-0.405-0.352-0.856-0.6-1.599-0.6c-1.164,0-1.997,0.983-1.997,2.154v0.016c0,1.253,0.803,2.184,2.08,2.184
	c0.601,0,1.156-0.232,1.517-0.525v-1.307h-1.599v-0.532h2.169v2.095c-0.488,0.436-1.224,0.803-2.109,0.803
	C38.431,17.629,37.409,16.428,37.409,14.927z"/>
<path d="M45.467,12.246h0.556l2.395,5.293h-0.638l-0.616-1.389h-2.86l-0.623,1.389h-0.608L45.467,12.246z M46.931,15.617
	l-1.193-2.68l-1.201,2.68H46.931z"/>
<path d="M53.063,12.832h-1.771v-0.548h4.137v0.548h-1.772v4.707h-0.593V12.832z"/>
<path d="M57.804,12.246h0.556l2.395,5.293h-0.638L59.5,16.15h-2.86l-0.623,1.389h-0.608L57.804,12.246z M59.268,15.617l-1.193-2.68
	l-1.201,2.68H59.268z"/>
<path d="M61.785,12.284h0.556l3.311,4.212v-4.212h0.578v5.255h-0.473l-3.393-4.309v4.309h-0.578V12.284z"/>
<path d="M67.477,14.927v-0.015c0-1.441,1.059-2.719,2.635-2.719c0.886,0,1.434,0.256,1.959,0.699l-0.383,0.449
	c-0.405-0.352-0.855-0.6-1.599-0.6c-1.164,0-1.997,0.983-1.997,2.154v0.016c0,1.253,0.803,2.184,2.08,2.184
	c0.601,0,1.156-0.232,1.517-0.525v-1.307h-1.599v-0.532h2.169v2.095c-0.487,0.436-1.224,0.803-2.109,0.803
	C68.498,17.629,67.477,16.428,67.477,14.927z"/>
<path d="M75.534,12.246h0.556l2.395,5.293h-0.638L77.23,16.15h-2.859l-0.623,1.389H73.14L75.534,12.246z M76.998,15.617l-1.193-2.68
	l-1.201,2.68H76.998z"/>
<path d="M80.235,12.832h-1.771v-0.548h4.137v0.548h-1.772v4.707h-0.593V12.832z"/>
<path d="M84.977,12.246h0.556l2.395,5.293h-0.638l-0.615-1.389h-2.86l-0.624,1.389h-0.607L84.977,12.246z M86.44,15.617l-1.193-2.68
	l-1.201,2.68H86.44z"/>
</svg>
